<mxfile host="app.diagrams.net" modified="2021-04-28T09:36:28.397Z" agent="5.0 (Windows NT 10.0; Win64; x64) AppleWebKit/537.36 (KHTML, like Gecko) Chrome/90.0.4430.93 Safari/537.36" etag="VSk_IObijLpGUSyIAvei" version="14.5.1" type="github">
  <diagram id="aNPiQracg7Gd0nu98k_X" name="Страница 1">
    <mxGraphModel dx="1102" dy="624" grid="1" gridSize="10" guides="1" tooltips="1" connect="1" arrows="1" fold="1" page="1" pageScale="1" pageWidth="827" pageHeight="1169" math="0" shadow="0">
      <root>
        <mxCell id="0" />
        <mxCell id="1" parent="0" />
        <mxCell id="P6XLd6a_Fv8_yWBecE8W-2" value="CompanyTypes" style="shape=table;html=1;whiteSpace=wrap;startSize=30;container=1;collapsible=0;childLayout=tableLayout;fixedRows=1;rowLines=0;fontStyle=1;align=center;" vertex="1" parent="1">
          <mxGeometry x="40" y="40" width="180" height="90" as="geometry" />
        </mxCell>
        <mxCell id="P6XLd6a_Fv8_yWBecE8W-3" value="" style="shape=partialRectangle;html=1;whiteSpace=wrap;collapsible=0;dropTarget=0;pointerEvents=0;fillColor=none;top=0;left=0;bottom=1;right=0;points=[[0,0.5],[1,0.5]];portConstraint=eastwest;" vertex="1" parent="P6XLd6a_Fv8_yWBecE8W-2">
          <mxGeometry y="30" width="180" height="30" as="geometry" />
        </mxCell>
        <mxCell id="P6XLd6a_Fv8_yWBecE8W-4" value="1" style="shape=partialRectangle;html=1;whiteSpace=wrap;connectable=0;fillColor=none;top=0;left=0;bottom=0;right=0;overflow=hidden;" vertex="1" parent="P6XLd6a_Fv8_yWBecE8W-3">
          <mxGeometry width="40" height="30" as="geometry" />
        </mxCell>
        <mxCell id="P6XLd6a_Fv8_yWBecE8W-5" value="Бюджет" style="shape=partialRectangle;html=1;whiteSpace=wrap;connectable=0;fillColor=none;top=0;left=0;bottom=0;right=0;align=left;spacingLeft=6;overflow=hidden;" vertex="1" parent="P6XLd6a_Fv8_yWBecE8W-3">
          <mxGeometry x="40" width="140" height="30" as="geometry" />
        </mxCell>
        <mxCell id="P6XLd6a_Fv8_yWBecE8W-6" value="" style="shape=partialRectangle;html=1;whiteSpace=wrap;collapsible=0;dropTarget=0;pointerEvents=0;fillColor=none;top=0;left=0;bottom=0;right=0;points=[[0,0.5],[1,0.5]];portConstraint=eastwest;" vertex="1" parent="P6XLd6a_Fv8_yWBecE8W-2">
          <mxGeometry y="60" width="180" height="30" as="geometry" />
        </mxCell>
        <mxCell id="P6XLd6a_Fv8_yWBecE8W-7" value="2" style="shape=partialRectangle;html=1;whiteSpace=wrap;connectable=0;fillColor=none;top=0;left=0;bottom=0;right=0;overflow=hidden;" vertex="1" parent="P6XLd6a_Fv8_yWBecE8W-6">
          <mxGeometry width="40" height="30" as="geometry" />
        </mxCell>
        <mxCell id="P6XLd6a_Fv8_yWBecE8W-8" value="Юридик" style="shape=partialRectangle;html=1;whiteSpace=wrap;connectable=0;fillColor=none;top=0;left=0;bottom=0;right=0;align=left;spacingLeft=6;overflow=hidden;" vertex="1" parent="P6XLd6a_Fv8_yWBecE8W-6">
          <mxGeometry x="40" width="140" height="30" as="geometry" />
        </mxCell>
        <mxCell id="P6XLd6a_Fv8_yWBecE8W-12" value="Companies" style="shape=table;html=1;whiteSpace=wrap;startSize=30;container=1;collapsible=0;childLayout=tableLayout;fixedRows=1;rowLines=0;fontStyle=1;align=center;" vertex="1" parent="1">
          <mxGeometry x="40" y="200" width="600" height="150" as="geometry" />
        </mxCell>
        <mxCell id="P6XLd6a_Fv8_yWBecE8W-13" value="" style="shape=partialRectangle;html=1;whiteSpace=wrap;collapsible=0;dropTarget=0;pointerEvents=0;fillColor=none;top=0;left=0;bottom=1;right=0;points=[[0,0.5],[1,0.5]];portConstraint=eastwest;" vertex="1" parent="P6XLd6a_Fv8_yWBecE8W-12">
          <mxGeometry y="30" width="600" height="30" as="geometry" />
        </mxCell>
        <mxCell id="P6XLd6a_Fv8_yWBecE8W-14" value="1" style="shape=partialRectangle;html=1;whiteSpace=wrap;connectable=0;fillColor=none;top=0;left=0;bottom=0;right=0;overflow=hidden;" vertex="1" parent="P6XLd6a_Fv8_yWBecE8W-13">
          <mxGeometry width="40" height="30" as="geometry" />
        </mxCell>
        <mxCell id="P6XLd6a_Fv8_yWBecE8W-15" value="Nomi" style="shape=partialRectangle;html=1;whiteSpace=wrap;connectable=0;fillColor=none;top=0;left=0;bottom=0;right=0;align=left;spacingLeft=6;overflow=hidden;" vertex="1" parent="P6XLd6a_Fv8_yWBecE8W-13">
          <mxGeometry x="40" width="140" height="30" as="geometry" />
        </mxCell>
        <mxCell id="P6XLd6a_Fv8_yWBecE8W-29" value="Shartnoma Raqami" style="shape=partialRectangle;html=1;whiteSpace=wrap;connectable=0;fillColor=none;top=0;left=0;bottom=0;right=0;align=left;spacingLeft=6;overflow=hidden;" vertex="1" parent="P6XLd6a_Fv8_yWBecE8W-13">
          <mxGeometry x="180" width="140" height="30" as="geometry" />
        </mxCell>
        <mxCell id="P6XLd6a_Fv8_yWBecE8W-32" value="Sh.sanasi" style="shape=partialRectangle;html=1;whiteSpace=wrap;connectable=0;fillColor=none;top=0;left=0;bottom=0;right=0;align=left;spacingLeft=6;overflow=hidden;" vertex="1" parent="P6XLd6a_Fv8_yWBecE8W-13">
          <mxGeometry x="320" width="140" height="30" as="geometry" />
        </mxCell>
        <mxCell id="P6XLd6a_Fv8_yWBecE8W-35" style="shape=partialRectangle;html=1;whiteSpace=wrap;connectable=0;fillColor=none;top=0;left=0;bottom=0;right=0;align=left;spacingLeft=6;overflow=hidden;" vertex="1" parent="P6XLd6a_Fv8_yWBecE8W-13">
          <mxGeometry x="460" width="140" height="30" as="geometry" />
        </mxCell>
        <mxCell id="P6XLd6a_Fv8_yWBecE8W-16" value="" style="shape=partialRectangle;html=1;whiteSpace=wrap;collapsible=0;dropTarget=0;pointerEvents=0;fillColor=none;top=0;left=0;bottom=0;right=0;points=[[0,0.5],[1,0.5]];portConstraint=eastwest;" vertex="1" parent="P6XLd6a_Fv8_yWBecE8W-12">
          <mxGeometry y="60" width="600" height="30" as="geometry" />
        </mxCell>
        <mxCell id="P6XLd6a_Fv8_yWBecE8W-17" value="2" style="shape=partialRectangle;html=1;whiteSpace=wrap;connectable=0;fillColor=none;top=0;left=0;bottom=0;right=0;overflow=hidden;" vertex="1" parent="P6XLd6a_Fv8_yWBecE8W-16">
          <mxGeometry width="40" height="30" as="geometry" />
        </mxCell>
        <mxCell id="P6XLd6a_Fv8_yWBecE8W-18" value="Value 2" style="shape=partialRectangle;html=1;whiteSpace=wrap;connectable=0;fillColor=none;top=0;left=0;bottom=0;right=0;align=left;spacingLeft=6;overflow=hidden;" vertex="1" parent="P6XLd6a_Fv8_yWBecE8W-16">
          <mxGeometry x="40" width="140" height="30" as="geometry" />
        </mxCell>
        <mxCell id="P6XLd6a_Fv8_yWBecE8W-30" style="shape=partialRectangle;html=1;whiteSpace=wrap;connectable=0;fillColor=none;top=0;left=0;bottom=0;right=0;align=left;spacingLeft=6;overflow=hidden;" vertex="1" parent="P6XLd6a_Fv8_yWBecE8W-16">
          <mxGeometry x="180" width="140" height="30" as="geometry" />
        </mxCell>
        <mxCell id="P6XLd6a_Fv8_yWBecE8W-33" style="shape=partialRectangle;html=1;whiteSpace=wrap;connectable=0;fillColor=none;top=0;left=0;bottom=0;right=0;align=left;spacingLeft=6;overflow=hidden;" vertex="1" parent="P6XLd6a_Fv8_yWBecE8W-16">
          <mxGeometry x="320" width="140" height="30" as="geometry" />
        </mxCell>
        <mxCell id="P6XLd6a_Fv8_yWBecE8W-36" style="shape=partialRectangle;html=1;whiteSpace=wrap;connectable=0;fillColor=none;top=0;left=0;bottom=0;right=0;align=left;spacingLeft=6;overflow=hidden;" vertex="1" parent="P6XLd6a_Fv8_yWBecE8W-16">
          <mxGeometry x="460" width="140" height="30" as="geometry" />
        </mxCell>
        <mxCell id="P6XLd6a_Fv8_yWBecE8W-19" value="" style="shape=partialRectangle;html=1;whiteSpace=wrap;collapsible=0;dropTarget=0;pointerEvents=0;fillColor=none;top=0;left=0;bottom=0;right=0;points=[[0,0.5],[1,0.5]];portConstraint=eastwest;" vertex="1" parent="P6XLd6a_Fv8_yWBecE8W-12">
          <mxGeometry y="90" width="600" height="30" as="geometry" />
        </mxCell>
        <mxCell id="P6XLd6a_Fv8_yWBecE8W-20" value="3" style="shape=partialRectangle;html=1;whiteSpace=wrap;connectable=0;fillColor=none;top=0;left=0;bottom=0;right=0;overflow=hidden;" vertex="1" parent="P6XLd6a_Fv8_yWBecE8W-19">
          <mxGeometry width="40" height="30" as="geometry" />
        </mxCell>
        <mxCell id="P6XLd6a_Fv8_yWBecE8W-21" value="Value 3" style="shape=partialRectangle;html=1;whiteSpace=wrap;connectable=0;fillColor=none;top=0;left=0;bottom=0;right=0;align=left;spacingLeft=6;overflow=hidden;" vertex="1" parent="P6XLd6a_Fv8_yWBecE8W-19">
          <mxGeometry x="40" width="140" height="30" as="geometry" />
        </mxCell>
        <mxCell id="P6XLd6a_Fv8_yWBecE8W-31" style="shape=partialRectangle;html=1;whiteSpace=wrap;connectable=0;fillColor=none;top=0;left=0;bottom=0;right=0;align=left;spacingLeft=6;overflow=hidden;" vertex="1" parent="P6XLd6a_Fv8_yWBecE8W-19">
          <mxGeometry x="180" width="140" height="30" as="geometry" />
        </mxCell>
        <mxCell id="P6XLd6a_Fv8_yWBecE8W-34" style="shape=partialRectangle;html=1;whiteSpace=wrap;connectable=0;fillColor=none;top=0;left=0;bottom=0;right=0;align=left;spacingLeft=6;overflow=hidden;" vertex="1" parent="P6XLd6a_Fv8_yWBecE8W-19">
          <mxGeometry x="320" width="140" height="30" as="geometry" />
        </mxCell>
        <mxCell id="P6XLd6a_Fv8_yWBecE8W-37" style="shape=partialRectangle;html=1;whiteSpace=wrap;connectable=0;fillColor=none;top=0;left=0;bottom=0;right=0;align=left;spacingLeft=6;overflow=hidden;" vertex="1" parent="P6XLd6a_Fv8_yWBecE8W-19">
          <mxGeometry x="460" width="140" height="30" as="geometry" />
        </mxCell>
      </root>
    </mxGraphModel>
  </diagram>
</mxfile>
